<?xml version="1.0" encoding="iso-8859-1"?>
<!-- Generator: Adobe Illustrator 18.1.1, SVG Export Plug-In . SVG Version: 6.00 Build 0)  -->
<svg version="1.1" id="Capa_1" xmlns="http://www.w3.org/2000/svg" xmlns:xlink="http://www.w3.org/1999/xlink" x="0px" y="0px"
	 viewBox="0 0 44.094 44.094" style="enable-background:new 0 0 44.094 44.094;" xml:space="preserve"><defs><style>:root{--cg1:#006C67;--cg2:#2F7F78}@media (prefers-color-scheme:dark){:root{--cg1:#69C8BD;--cg2:#89D8CE}}</style><linearGradient id="chweziGradient" x1="0%" y1="0%" x2="100%" y2="100%"><stop offset="0%" stop-color="var(--cg1)"/><stop offset="100%" stop-color="var(--cg2)"/></linearGradient></defs>
<g>
	<g>
		<polygon style="fill:url(#chweziGradient);" points="40.743,0.817 35.776,0 30.065,34.696 30.064,34.698 31.077,43.895 35.032,35.516 
			35.032,35.515 35.032,35.515 		"/>
		<g>
			<g>
				<path style="fill:url(#chweziGradient);" d="M3.545,44.094c4.372,0,8.744,0,13.116,0c4.778,0,9.557,0,14.335,0c0.026,0,0.053,0,0.08,0
					c0.258,0,0.258-0.399,0-0.399c-4.373,0-8.745,0-13.117,0c-4.778,0-9.557,0-14.335,0c-0.027,0-0.053,0-0.08,0
					C3.287,43.695,3.287,44.094,3.545,44.094L3.545,44.094z"/>
			</g>
		</g>
	</g>
</g>
<g>
</g>
<g>
</g>
<g>
</g>
<g>
</g>
<g>
</g>
<g>
</g>
<g>
</g>
<g>
</g>
<g>
</g>
<g>
</g>
<g>
</g>
<g>
</g>
<g>
</g>
<g>
</g>
<g>
</g>
</svg>



