<svg height="512" viewBox="0 0 64 64" width="512" xmlns="http://www.w3.org/2000/svg"><defs><style>:root{--cg1:#006C67;--cg2:#2F7F78}@media (prefers-color-scheme:dark){:root{--cg1:#69C8BD;--cg2:#89D8CE}}</style><linearGradient id="chweziGradient" x1="0%" y1="0%" x2="100%" y2="100%"><stop offset="0%" stop-color="var(--cg1)"/><stop offset="100%" stop-color="var(--cg2)"/></linearGradient></defs><g id="colour"><path d="m2 15v24l22 13v-24z" fill="url(#chweziGradient)"/><path d="m24 28 24-14v24l-24 14z" fill="url(#chweziGradient)"/><path d="m12.28 21.08 23.47-13.76-9.75-5.32-24 13z" fill="url(#chweziGradient)"/><path d="m12.28 21.08 23.47-13.76 12.25 6.68-24 14z" fill="url(#chweziGradient)"/><path d="m61.25 59.98-1.86 1.56a1.917 1.917 0 0 1 -2.7-.21l-5.38-6.11-2.68-3.05a12.708 12.708 0 0 0 4.59-4.62l2.75 3.13 5.5 6.25a2.157 2.157 0 0 1 -.22 3.05z" fill="url(#chweziGradient)"/><path d="m55.97 50.68a16.784 16.784 0 0 1 -4.66 4.54l-2.68-3.05a12.708 12.708 0 0 0 4.59-4.62z" fill="url(#chweziGradient)"/><circle cx="42" cy="41" fill="url(#chweziGradient)" r="13"/><path d="m55 41a13 13 0 0 1 -26 0z" fill="url(#chweziGradient)"/><g fill="url(#chweziGradient)"><path d="m36 36h2v10h-2z"/><path d="m41 36h2v10h-2z"/><path d="m46 36h2v10h-2z"/><path d="m44 36h1v10h-1z"/><path d="m49 36h1v10h-1z"/><path d="m34 36h1v10h-1z"/><path d="m39 36h1v10h-1z"/></g><path d="m36 41h2v5h-2z" fill="url(#chweziGradient)"/><path d="m41 41h2v5h-2z" fill="url(#chweziGradient)"/><path d="m46 41h2v5h-2z" fill="url(#chweziGradient)"/><path d="m44 41h1v5h-1z" fill="url(#chweziGradient)"/><path d="m49 41h1v5h-1z" fill="url(#chweziGradient)"/><path d="m34 41h1v5h-1z" fill="url(#chweziGradient)"/><path d="m39 41h1v5h-1z" fill="url(#chweziGradient)"/><path d="m42 55a14 14 0 1 1 14-14 14.016 14.016 0 0 1 -14 14zm0-26a12 12 0 1 0 12 12 12.014 12.014 0 0 0 -12-12z" fill="url(#chweziGradient)"/></g></svg>


